HIERARCHY
ROOT joint_Root
{
	OFFSET 0.0 0.0 0.0
	CHANNELS 6 Xposition Yposition Zposition Zrotation Xrotation Yrotation 
	JOINT Hips
	{
		OFFSET -0.726466 93.3139 -2.00062
		CHANNELS 6 Xposition Yposition Zposition Zrotation Xrotation Yrotation 
		JOINT Spine
		{
			OFFSET 15.7357 0.0 0.0
			CHANNELS 6 Xposition Yposition Zposition Zrotation Xrotation Yrotation 
			JOINT Chest
			{
				OFFSET 8.98455 -0.406207 0.0
				CHANNELS 6 Xposition Yposition Zposition Zrotation Xrotation Yrotation 
				JOINT Neck
				{
					OFFSET 16.3773 0.0 0.0
					CHANNELS 6 Xposition Yposition Zposition Zrotation Xrotation Yrotation 
					JOINT Head
					{
						OFFSET 6.45672 0.0 0.0
						CHANNELS 6 Xposition Yposition Zposition Zrotation Xrotation Yrotation 
						End Site
						{
							OFFSET 0.0 0.0 0.0
						}
					}
				}
				JOINT Shoulder_L
				{
					OFFSET 12.9942 -0.242716 4.98039
					CHANNELS 6 Xposition Yposition Zposition Zrotation Xrotation Yrotation 
					JOINT UpperArm_L
					{
						OFFSET 5.34809 0.0 0.0
						CHANNELS 6 Xposition Yposition Zposition Zrotation Xrotation Yrotation 
						JOINT LowerArm_L
						{
							OFFSET 24.3286 1.87007e-05 0.0
							CHANNELS 6 Xposition Yposition Zposition Zrotation Xrotation Yrotation 
							JOINT Hand_L
							{
								OFFSET 22.2916 0.0 0.0
								CHANNELS 6 Xposition Yposition Zposition Zrotation Xrotation Yrotation 
								End Site
								{
									OFFSET 0.0 0.0 0.0
								}
							}
						}
					}
				}
				JOINT Shoulder_R
				{
					OFFSET 12.9945 -0.242716 -4.98039
					CHANNELS 6 Xposition Yposition Zposition Zrotation Xrotation Yrotation 
					JOINT UpperArm_R
					{
						OFFSET -5.34813 0.0 0.0
						CHANNELS 6 Xposition Yposition Zposition Zrotation Xrotation Yrotation 
						JOINT LowerArm_R
						{
							OFFSET -24.3289 0.000322201 0.0
							CHANNELS 6 Xposition Yposition Zposition Zrotation Xrotation Yrotation 
							JOINT Hand_R
							{
								OFFSET -22.2915 -0.000108084 0.0
								CHANNELS 6 Xposition Yposition Zposition Zrotation Xrotation Yrotation 
								End Site
								{
									OFFSET 0.0 0.0 0.0
								}
							}
						}
					}
				}
			}
		}
		JOINT UpperLeg_L
		{
			OFFSET -2.19248 -6.46944 0.0
			CHANNELS 6 Xposition Yposition Zposition Zrotation Xrotation Yrotation 
			JOINT LowerLeg_L
			{
				OFFSET 39.0811 0.0 -1.23785e-05
				CHANNELS 6 Xposition Yposition Zposition Zrotation Xrotation Yrotation 
				JOINT Foot_L
				{
					OFFSET 40.9854 0.0 -1.26872e-05
					CHANNELS 6 Xposition Yposition Zposition Zrotation Xrotation Yrotation 
					JOINT Toes_L
					{
						OFFSET 11.7543 0.0 0.0
						CHANNELS 6 Xposition Yposition Zposition Zrotation Xrotation Yrotation 
						End Site
						{
							OFFSET 0.0 0.0 0.0
						}
					}
				}
			}
		}
		JOINT UpperLeg_R
		{
			OFFSET -2.19251 6.46944 0.0
			CHANNELS 6 Xposition Yposition Zposition Zrotation Xrotation Yrotation 
			JOINT LowerLeg_R
			{
				OFFSET -39.0811 -0.00228153 -0.0401928
				CHANNELS 6 Xposition Yposition Zposition Zrotation Xrotation Yrotation 
				JOINT Foot_R
				{
					OFFSET -40.9854 0.0 0.0
					CHANNELS 6 Xposition Yposition Zposition Zrotation Xrotation Yrotation 
					JOINT Toes_R
					{
						OFFSET -11.7543 0.0 0.0
						CHANNELS 6 Xposition Yposition Zposition Zrotation Xrotation Yrotation 
						End Site
						{
							OFFSET 0.0 0.0 0.0
						}
					}
				}
			}
		}
	}
}
MOTION
Frames:	5
Frame Time:	0.0333333
0.000000 0.000000 0.000000 0.000000 0.000000 -0.000000 -0.452783 92.406200 0.110816 88.109900 -0.410625 2.716110 15.735700 0.000005 -0.000001 87.523000 86.072600 -87.174200 8.984550 -0.406207 -0.000000 0.082713 -0.362770 0.697328 16.377300 -0.000001 -0.000001 3.613120 -1.988520 0.405063 6.456720 -0.000001 -0.000000 0.801381 -0.717363 -0.602430 12.994200 -0.242716 4.980390 -89.948700 -0.156931 -71.883200 5.348090 -0.000007 -0.000001 -68.891300 38.221200 -12.208000 24.328600 0.000019 0.000005 0.432972 0.990656 -23.607300 22.291600 -0.000001 0.000005 5.626630 5.488360 -6.071710 12.994500 -0.242716 -4.980390 87.760200 6.214080 -70.133800 -5.348130 -0.000001 -0.000004 -66.825200 38.159100 -13.511600 -24.328900 0.000322 -0.000009 1.935990 5.917040 -18.162700 -22.291500 -0.000108 -0.000004 7.556250 5.380850 -2.322970 -2.192480 -6.469440 -0.000000 -175.975000 -5.347520 -2.849100 39.081100 -0.000007 -0.000012 -0.102905 0.259409 21.637700 40.985400 -0.000006 -0.000013 -0.239474 2.646420 -66.336800 11.754300 -0.000000 0.000003 -0.000049 -0.000551 -16.599000 -2.192510 6.469440 -0.000001 179.981000 11.896600 179.320000 -39.081100 -0.002282 -0.040193 0.000098 0.009621 18.536400 -40.985400 0.000008 0.000006 3.893440 5.559760 -65.715800 -11.754300 -0.000006 -0.000006 -0.008245 -0.090018 -20.238900
0.000000 0.000000 0.000000 0.000000 0.000000 -0.000000 -0.438039 92.406800 0.112737 88.099100 -0.430681 2.799660 15.735700 0.000005 -0.000001 87.423700 86.048300 -87.113300 8.984550 -0.406207 -0.000000 0.130542 -0.375839 0.620655 16.377300 -0.000001 -0.000001 3.532820 -1.892320 0.334742 6.456720 -0.000001 -0.000000 0.717212 -0.611950 -0.616283 12.994200 -0.242716 4.980390 -89.922800 -0.235543 -71.845800 5.348090 -0.000007 -0.000001 -69.013500 38.124500 -12.121400 24.328600 0.000019 0.000005 0.458671 1.049940 -23.598000 22.291600 -0.000001 0.000005 5.613910 5.488850 -6.090550 12.994500 -0.242716 -4.980390 87.730700 6.258740 -70.024000 -5.348130 -0.000001 -0.000004 -66.323600 37.557900 -13.798300 -24.328900 0.000322 -0.000009 2.395730 6.672660 -19.806900 -22.291500 -0.000108 -0.000004 6.160710 5.362160 -1.740920 -2.192480 -6.469440 -0.000000 -175.970000 -5.356530 -2.763800 39.081100 -0.000007 -0.000012 -0.103322 0.260404 21.642000 40.985400 -0.000006 -0.000013 -0.236422 2.603260 -66.341600 11.754300 -0.000000 0.000003 -0.000053 -0.000597 -16.600700 -2.192510 6.469440 -0.000001 179.971000 11.908700 179.401000 -39.081100 -0.002282 -0.040193 0.001903 0.004237 18.543300 -40.985400 0.000008 0.000006 3.993680 5.572050 -65.731500 -11.754300 -0.000006 -0.000006 -0.008280 -0.090303 -20.250600
0.000000 0.000000 0.000000 0.000000 0.000000 -0.000000 -0.403502 92.406900 0.077241 88.071500 -0.552835 2.741370 15.735700 0.000005 -0.000001 87.193600 86.071000 -86.909700 8.984550 -0.406207 -0.000000 0.083581 -0.403667 0.567704 16.377300 -0.000001 -0.000001 3.457360 -1.782130 0.250463 6.456720 -0.000001 -0.000000 0.630070 -0.412985 -0.691531 12.994200 -0.242716 4.980390 -89.896500 -0.315412 -71.832300 5.348090 -0.000007 -0.000001 -69.163900 37.978100 -11.955300 24.328600 0.000019 0.000005 0.485978 1.110710 -23.631100 22.291600 -0.000001 0.000005 5.509030 5.488580 -6.080270 12.994500 -0.242716 -4.980390 87.655700 6.398200 -69.828700 -5.348130 -0.000001 -0.000004 -65.377200 35.967000 -14.360700 -24.328900 0.000322 -0.000009 3.372960 8.057270 -22.808700 -22.291500 -0.000108 -0.000004 4.603260 5.363660 -1.791900 -2.192480 -6.469440 -0.000000 -175.968000 -5.418460 -2.859570 39.081100 -0.000007 -0.000012 -0.104492 0.262709 21.690200 40.985400 -0.000006 -0.000013 -0.225651 2.550620 -66.347100 11.754300 -0.000000 0.000003 -0.000059 -0.000658 -16.603000 -2.192510 6.469440 -0.000001 179.996000 11.844600 179.288000 -39.081100 -0.002282 -0.040193 0.001756 0.004669 18.567200 -40.985400 0.000008 0.000006 3.980550 5.614420 -65.699400 -11.754300 -0.000006 -0.000006 -0.008368 -0.091010 -20.279500
0.000000 0.000000 0.000000 0.000000 0.000000 -0.000000 -0.360286 92.409400 0.059269 88.073300 -0.795022 2.835990 15.735700 0.000005 -0.000001 86.912200 86.051000 -86.659000 8.984550 -0.406207 -0.000000 0.121545 -0.442212 0.506572 16.377300 -0.000001 -0.000001 3.434620 -1.577260 0.151123 6.456720 -0.000001 -0.000000 0.516311 -0.083119 -0.781827 12.994200 -0.242716 4.980390 -89.869500 -0.395443 -71.739000 5.348090 -0.000007 -0.000001 -69.343000 37.838700 -11.761100 24.328600 0.000019 0.000005 0.487151 1.112010 -23.657300 22.291600 -0.000001 0.000005 5.482260 5.487390 -6.033700 12.994500 -0.242716 -4.980390 87.533700 6.609210 -69.482900 -5.348130 -0.000001 -0.000004 -63.599600 33.980400 -15.550000 -24.328900 0.000322 -0.000009 4.171750 8.093180 -27.396400 -22.291500 -0.000108 -0.000004 4.678430 5.374490 -2.123980 -2.192480 -6.469440 -0.000000 -175.992000 -5.567800 -2.709150 39.081100 -0.000007 -0.000012 -0.102165 0.257326 21.654300 40.985400 -0.000006 -0.000013 -0.204085 2.485370 -66.354900 11.754300 -0.000000 0.000003 -0.000054 -0.000602 -16.600900 -2.192510 6.469440 -0.000001 179.946000 11.653400 179.364000 -39.081100 -0.002282 -0.040193 0.000984 0.006965 18.566400 -40.985400 0.000008 0.000006 3.938460 5.683620 -65.672000 -11.754300 -0.000006 -0.000006 -0.008099 -0.088836 -20.190600
0.000000 0.000000 0.000000 0.000000 0.000000 -0.000000 -0.292753 92.412900 -0.007043 88.015400 -1.168700 2.810910 15.735700 0.000005 -0.000001 86.308700 86.071800 -86.055100 8.984550 -0.406207 -0.000000 0.075198 -0.522677 0.507257 16.377300 -0.000001 -0.000001 3.407620 -1.332450 0.024047 6.456720 -0.000001 -0.000000 0.450297 0.352003 -0.888142 12.994200 -0.242716 4.980390 -89.844900 -0.466771 -71.623000 5.348090 -0.000007 -0.000001 -69.550600 37.654100 -11.515400 24.328600 0.000019 0.000005 0.490188 1.120860 -23.621100 22.291600 -0.000001 0.000005 5.526100 5.486100 -5.983370 12.994500 -0.242716 -4.980390 87.443200 6.730780 -69.143400 -5.348130 -0.000001 -0.000004 -61.486700 31.129500 -17.468700 -24.328900 0.000322 -0.000009 4.587380 7.106780 -32.973300 -22.291500 -0.000108 -0.000004 6.007590 5.389800 -2.606990 -2.192480 -6.469440 -0.000000 -175.990000 -5.734950 -2.762850 39.081100 -0.000007 -0.000012 -0.102608 0.257709 21.710300 40.985400 -0.000006 -0.000013 -0.199894 2.268180 -66.363400 11.754300 -0.000000 0.000003 -0.000053 -0.000596 -16.600700 -2.192510 6.469440 -0.000001 179.972000 11.414400 179.257000 -39.081100 -0.002282 -0.040193 0.000776 0.007587 18.566900 -40.985400 0.000008 0.000006 3.876010 5.854270 -65.584300 -11.754300 -0.000006 -0.000006 -0.008140 -0.089168 -20.204200
